<?xml version="1.0" standalone="no"?>
<!DOCTYPE svg PUBLIC "-//W3C//DTD SVG 20010904//EN"
 "http://www.w3.org/TR/2001/REC-SVG-20010904/DTD/svg10.dtd">
<svg version="1.0" xmlns="http://www.w3.org/2000/svg"
 width="768.000000pt" height="512.000000pt" viewBox="0 0 768.000000 512.000000"
 preserveAspectRatio="xMidYMid meet">

<g transform="translate(0.000000,512.000000) scale(0.100000,-0.100000)"
fill="#000000" stroke="none">
<path d="M3083 4077 c22 -50 482 -990 715 -1460 l286 -577 260 2 260 3 86 180
c144 306 342 726 488 1040 77 165 197 416 266 558 80 165 121 259 113 262 -7
2 -131 3 -276 2 l-264 -2 -63 -143 c-34 -78 -183 -424 -331 -767 -147 -344
-270 -625 -273 -625 -3 0 -55 112 -117 248 -226 497 -579 1267 -586 1280 -12
18 -571 17 -564 -1z"/>
<path d="M2520 4059 c0 -25 4 -34 12 -32 4 2 5 -4 2 -12 -4 -8 -11 -12 -16 -9
-6 4 -8 1 -6 -7 3 -8 10 -13 16 -12 6 2 9 -3 6 -11 -3 -8 -1 -17 5 -21 6 -3
12 -1 12 4 1 6 3 16 4 21 1 6 3 17 4 25 1 12 5 11 22 -6 11 -11 18 -26 16 -34
-3 -7 2 -23 10 -36 9 -12 11 -19 5 -15 -7 4 -10 -1 -9 -14 1 -20 27 -38 27
-18 0 6 8 3 19 -8 13 -13 16 -24 10 -36 -7 -13 -5 -16 9 -15 11 0 18 9 18 21
-1 13 6 21 19 23 19 3 19 2 1 -5 -17 -7 -17 -9 -2 -24 9 -9 16 -33 16 -55 1
-79 4 -98 19 -110 12 -9 19 -9 30 0 12 9 13 9 7 0 -4 -7 -2 -13 4 -13 6 0 15
10 20 23 5 12 9 18 10 12 1 -5 3 -18 5 -27 2 -10 -1 -21 -6 -24 -6 -3 -5 -11
2 -20 6 -8 10 -14 8 -15 -31 -6 -38 -6 -33 2 3 5 1 9 -5 9 -5 0 -11 -5 -13
-11 -2 -7 -9 -5 -17 5 -12 14 -12 16 3 10 22 -9 20 9 -4 31 -24 22 -33 15 -32
-25 0 -17 -5 -30 -11 -30 -7 -1 -1 -7 13 -15 31 -17 44 -19 34 -3 -4 7 -3 8 5
4 6 -4 9 -17 6 -29 -2 -12 -2 -16 1 -9 5 10 11 10 29 -2 15 -10 26 -12 30 -6
3 6 -1 10 -9 10 -9 0 -16 9 -16 21 0 13 4 18 12 13 6 -4 8 -3 4 4 -3 6 -2 14
4 17 7 4 8 11 1 18 -6 8 -5 19 5 31 12 18 14 7 14 -95 0 -67 -4 -119 -11 -126
-11 -11 18 -86 32 -78 10 7 20 -25 12 -37 -4 -7 -1 -8 7 -3 10 6 12 4 7 -9 -4
-9 -3 -15 2 -12 11 7 23 -22 15 -35 -3 -5 0 -9 6 -9 6 0 9 -4 5 -9 -7 -13 16
-62 26 -55 5 3 6 -3 2 -12 -5 -13 -3 -15 7 -9 8 5 11 4 7 -2 -9 -15 17 -75 28
-66 4 5 5 3 1 -4 -8 -14 14 -64 25 -57 5 3 6 -3 2 -12 -5 -13 -3 -15 7 -9 8 5
11 4 7 -3 -4 -5 43 -115 104 -244 61 -128 126 -264 144 -303 18 -38 69 -146
114 -239 45 -92 81 -172 81 -177 0 -5 116 -9 260 -9 143 0 260 2 260 5 0 3
-56 116 -124 253 -68 136 -230 465 -361 732 -130 266 -244 489 -252 495 -8 6
-13 15 -12 20 5 16 -11 55 -22 55 -6 0 -8 4 -5 9 3 5 -20 62 -52 127 -32 66
-69 143 -82 172 -13 28 -27 52 -32 52 -4 0 -7 3 -6 8 4 12 -24 72 -33 72 -5 0
-8 3 -8 8 5 32 0 32 -241 31 -229 -1 -240 -2 -240 -20z m54 -15 c3 -8 2 -12
-4 -9 -6 3 -10 10 -10 16 0 14 7 11 14 -7z m186 -224 c0 -5 -2 -10 -4 -10 -3
0 -8 5 -11 10 -3 6 -1 10 4 10 6 0 11 -4 11 -10z m50 -50 c0 -5 -2 -10 -4 -10
-3 0 -8 5 -11 10 -3 6 -1 10 4 10 6 0 11 -4 11 -10z m-61 -46 c-8 -10 -8 -14
0 -14 6 0 11 -5 11 -11 0 -8 -5 -8 -15 1 -11 9 -12 16 -5 25 5 6 6 16 2 20 -4
5 -1 5 6 1 10 -6 10 -11 1 -22z m188 -126 c-3 -8 -6 -5 -6 6 -1 11 2 17 5 13
3 -3 4 -12 1 -19z m-78 -223 c0 -5 -6 1 -14 15 -8 14 -14 30 -14 35 0 6 6 -1
14 -15 8 -14 14 -29 14 -35z"/>
<path d="M5670 4050 c0 -17 7 -20 45 -20 25 0 45 -2 45 -5 0 -3 -18 -42 -41
-87 l-41 -81 24 -18 c12 -10 28 -18 33 -18 6 0 4 3 -2 6 -20 8 -16 24 37 132
28 56 50 104 50 107 0 2 -34 4 -75 4 -68 0 -75 -2 -75 -20z"/>
<path d="M5860 4051 c0 -17 8 -20 50 -23 l49 -3 -44 -92 c-42 -90 -43 -93 -21
-93 19 0 30 17 69 105 26 58 47 110 47 115 0 6 -34 10 -75 10 -68 0 -75 -2
-75 -19z"/>
<path d="M2480 4029 c0 -5 5 -7 10 -4 6 3 10 8 10 11 0 2 -4 4 -10 4 -5 0 -10
-5 -10 -11z"/>
<path d="M2609 3856 c7 -8 19 -12 27 -9 18 7 10 16 -18 20 -17 3 -19 1 -9 -11z"/>
<path d="M5623 3863 c9 -2 25 -2 35 0 9 3 1 5 -18 5 -19 0 -27 -2 -17 -5z"/>
<path d="M5569 3843 c-13 -16 -12 -17 4 -4 9 7 17 15 17 17 0 8 -8 3 -21 -13z"/>
<path d="M5608 3843 c7 -3 16 -2 19 1 4 3 -2 6 -13 5 -11 0 -14 -3 -6 -6z"/>
<path d="M5695 3810 c3 -5 8 -10 11 -10 2 0 4 5 4 10 0 6 -5 10 -11 10 -5 0
-7 -4 -4 -10z"/>
<path d="M2701 3794 c0 -11 3 -14 6 -6 3 7 2 16 -1 19 -3 4 -6 -2 -5 -13z"/>
<path d="M5940 3730 c0 -5 5 -10 11 -10 5 0 7 5 4 10 -3 6 -8 10 -11 10 -2 0
-4 -4 -4 -10z"/>
<path d="M5811 3674 c0 -11 3 -14 6 -6 3 7 2 16 -1 19 -3 4 -6 -2 -5 -13z"/>
<path d="M2256 3585 c-9 -26 -7 -32 5 -12 6 10 9 21 6 23 -2 3 -7 -2 -11 -11z"/>
<path d="M2700 3561 c0 -5 7 -12 16 -15 14 -5 15 -4 4 9 -14 17 -20 19 -20 6z"/>
<path d="M2624 3543 c3 -7 2 -13 -3 -13 -10 0 -7 -52 4 -71 7 -11 5 -11 -10 1
-17 14 -18 14 -6 -7 8 -16 8 -23 1 -23 -7 0 -10 -13 -8 -30 2 -19 -3 -34 -12
-40 -8 -5 -10 -10 -4 -10 6 0 11 -13 11 -30 0 -17 -6 -30 -13 -30 -14 0 -12
-37 3 -64 9 -17 10 -17 17 -1 3 10 1 25 -6 33 -11 13 -10 15 5 9 11 -4 16 -3
12 3 -8 12 16 81 25 75 4 -3 5 7 2 20 -2 14 2 31 12 40 21 21 21 49 1 41 -12
-4 -15 1 -14 22 1 15 0 32 -2 39 -2 6 1 11 6 12 10 1 11 -3 14 -35 1 -10 7
-14 16 -10 8 3 15 0 15 -7 0 -7 5 -4 11 6 8 14 8 22 -1 30 -8 9 -10 8 -4 -6 4
-13 2 -16 -9 -11 -17 6 -11 44 6 44 7 0 7 4 -1 12 -17 17 -74 18 -68 1z m36
-114 c0 -3 -9 -9 -19 -12 -13 -3 -18 0 -15 7 5 13 34 18 34 5z"/>
<path d="M5387 3507 c-11 -28 -9 -67 4 -67 5 0 8 4 4 9 -3 5 2 16 10 24 17 17
20 31 6 22 -5 -3 -11 3 -13 12 -3 17 -4 17 -11 0z"/>
<path d="M2412 3498 c-16 -16 -15 -33 1 -19 8 6 17 8 21 4 4 -4 4 0 0 10 -7
20 -7 20 -22 5z"/>
<path d="M6140 3490 c-12 -11 -27 -17 -33 -13 -6 3 -7 1 -3 -6 4 -6 12 -9 17
-6 5 4 9 -1 9 -9 0 -9 -4 -16 -10 -16 -5 0 -8 -10 -6 -22 1 -13 8 -23 14 -23
6 0 14 -4 19 -8 4 -5 3 -7 -3 -5 -11 3 -14 -1 -14 -19 0 -4 13 6 29 21 18 17
27 34 24 44 -5 11 -3 13 8 7 11 -7 12 -6 2 6 -10 12 -10 18 0 29 7 8 8 11 1 7
-13 -8 -37 16 -27 26 15 16 -6 5 -27 -13z m11 -23 c-10 -9 -11 -8 -5 6 3 10 9
15 12 12 3 -3 0 -11 -7 -18z m29 -51 c0 -2 -8 -10 -17 -17 -16 -13 -17 -12 -4
4 13 16 21 21 21 13z"/>
<path d="M5453 3453 c-3 -10 -8 -22 -11 -27 -3 -5 0 -6 6 -2 8 4 12 -15 15
-61 3 -65 3 -64 5 20 2 85 -2 105 -15 70z"/>
<path d="M2400 3441 c0 -11 -3 -21 -7 -24 -5 -2 -2 -2 5 -1 6 2 12 -3 12 -10
0 -9 -7 -12 -19 -9 -10 3 -22 -1 -26 -8 -5 -7 -4 -10 2 -6 6 4 11 -4 11 -18 0
-14 -5 -22 -10 -19 -6 4 -5 -4 2 -16 10 -18 9 -21 -1 -15 -9 6 -11 3 -6 -8 3
-9 2 -19 -3 -22 -6 -4 -10 0 -10 9 0 8 -6 17 -12 19 -10 4 -9 8 2 16 10 7 11
11 3 11 -7 0 -13 7 -13 16 0 9 -5 12 -12 8 -7 -4 -8 -3 -4 4 10 17 24 15 29
-5 3 -11 5 -7 6 10 0 16 -3 26 -8 22 -6 -3 -14 3 -20 12 -9 16 -10 16 -11 -4
0 -13 -4 -23 -10 -23 -5 0 -10 -7 -10 -15 0 -8 6 -15 14 -15 8 0 18 -5 22 -11
5 -8 -1 -10 -20 -7 -20 4 -26 1 -26 -13 0 -11 -7 -19 -15 -19 -19 0 -20 -16
-1 -23 15 -6 10 -57 -6 -57 -5 0 -6 5 -2 11 3 6 2 14 -4 18 -6 4 -13 25 -14
48 -3 36 -5 40 -21 32 -9 -6 -23 -7 -29 -3 -7 4 -8 3 -4 -4 4 -7 16 -12 27
-12 11 0 18 -4 14 -10 -3 -5 -13 -6 -22 -3 -9 4 -14 2 -10 -3 3 -5 -6 -11 -21
-12 -15 -1 -32 -9 -38 -17 -6 -8 -14 -12 -18 -8 -4 4 -4 -1 0 -11 4 -12 3 -17
-2 -13 -5 3 -9 -7 -8 -21 0 -15 -4 -30 -10 -34 -8 -6 -7 -11 3 -17 8 -5 9 -11
3 -15 -15 -9 -23 23 -12 44 16 29 11 38 -5 10 -8 -14 -12 -33 -8 -44 3 -12 1
-16 -6 -12 -7 4 -9 1 -5 -8 3 -8 1 -23 -6 -33 -10 -16 -10 -15 -5 7 3 14 -3 8
-14 -15 -11 -24 -15 -48 -11 -60 5 -13 2 -24 -8 -31 -8 -6 -15 -25 -15 -43 0
-20 -3 -27 -8 -19 -5 7 -6 22 -3 33 4 16 3 17 -5 5 -6 -8 -8 -23 -5 -34 4 -12
2 -16 -5 -12 -7 5 -8 1 -4 -10 4 -11 2 -15 -4 -11 -6 4 -14 0 -17 -9 -9 -24
-7 -31 4 -14 5 8 10 11 9 5 0 -14 -38 -82 -39 -70 0 6 -5 3 -10 -5 -5 -8 -7
-23 -4 -34 4 -11 2 -16 -4 -12 -12 7 -25 -22 -15 -36 3 -6 1 -8 -4 -5 -13 8
-36 -50 -26 -66 4 -6 1 -7 -7 -2 -10 6 -12 4 -6 -11 4 -10 4 -15 0 -11 -7 6
-40 -70 -224 -510 l-39 -93 272 0 272 0 80 203 c43 111 79 210 79 219 0 9 2
15 5 12 8 -8 111 267 104 279 -3 6 -1 7 5 3 11 -7 16 7 15 41 -1 7 4 10 10 6
6 -4 8 0 4 10 -3 10 -2 17 2 17 8 0 14 13 36 75 6 16 5 17 -4 5 -6 -9 -11 -10
-11 -3 0 6 6 18 13 25 8 7 12 19 9 27 -3 8 0 11 6 7 12 -7 23 19 16 39 -4 8 1
17 10 21 11 4 15 13 10 26 -4 13 -2 18 4 14 13 -8 23 19 15 41 -4 9 -2 14 3
10 5 -3 10 2 11 11 3 47 8 72 16 72 5 0 6 -10 2 -22 -5 -20 -4 -21 5 -6 8 14
7 26 -4 50 -9 20 -16 68 -18 119 -2 92 -2 93 -58 72 -8 -4 -22 -5 -29 -4 -12
2 -13 0 -3 -12 10 -12 10 -16 0 -19 -7 -3 -13 -14 -13 -26 0 -12 -4 -21 -10
-19 -5 1 -9 6 -7 11 1 4 -2 13 -7 20 -6 7 -6 17 -1 26 15 24 12 50 -5 44 -11
-5 -13 -2 -9 10 3 9 1 16 -5 16 -6 0 -11 -9 -11 -19z m108 -81 c-5 -17 -19
-36 -29 -44 -10 -7 -16 -16 -11 -21 4 -5 1 -5 -5 -1 -8 4 -13 2 -13 -5 0 -7
-3 -9 -7 -5 -4 4 5 18 21 32 16 15 25 32 22 41 -8 19 1 33 19 33 11 0 12 -6 3
-30z m26 -25 c-4 -8 -11 -15 -16 -15 -6 0 -5 6 2 15 7 8 14 15 16 15 2 0 1 -7
-2 -15z m-424 -225 c0 -5 -4 -10 -10 -10 -5 0 -10 5 -10 10 0 6 5 10 10 10 6
0 10 -4 10 -10z"/>
<path d="M2287 3443 c-10 -10 -8 -55 2 -49 5 3 7 16 3 28 -3 14 -2 19 6 14 7
-4 12 -2 12 3 0 12 -13 14 -23 4z"/>
<path d="M5363 3375 c0 -33 2 -45 4 -27 2 18 2 45 0 60 -2 15 -4 0 -4 -33z"/>
<path d="M5431 3394 c0 -11 3 -14 6 -6 3 7 2 16 -1 19 -3 4 -6 -2 -5 -13z"/>
<path d="M5717 3384 c-4 -4 -7 -14 -7 -23 0 -11 3 -12 11 -4 6 6 10 16 7 23
-2 6 -7 8 -11 4z"/>
<path d="M2185 3350 c3 -5 8 -10 11 -10 2 0 4 5 4 10 0 6 -5 10 -11 10 -5 0
-7 -4 -4 -10z"/>
<path d="M5746 3337 c3 -10 9 -15 12 -12 3 3 0 11 -7 18 -10 9 -11 8 -5 -6z"/>
<path d="M2155 3311 c-3 -5 -1 -12 5 -16 5 -3 10 1 10 9 0 18 -6 21 -15 7z"/>
<path d="M5372 3246 c4 -19 1 -24 -13 -21 -15 3 -17 0 -9 -20 7 -17 4 -28 -11
-44 -11 -11 -18 -21 -16 -21 3 0 -50 -111 -117 -247 -67 -137 -185 -375 -261
-530 l-138 -283 -44 0 c-32 0 -43 -4 -43 -15 0 -22 23 -28 74 -21 l43 7 48
104 c27 58 52 105 56 105 4 0 10 -26 14 -59 4 -32 13 -71 21 -86 19 -36 19
-35 -21 -35 -25 0 -35 -4 -35 -15 0 -13 12 -15 68 -13 62 3 67 5 64 25 -3 24
147 331 172 352 9 7 13 18 9 24 -3 6 -1 7 5 3 7 -4 12 -4 12 1 0 4 17 19 38
32 20 14 45 34 55 45 10 12 16 15 12 9 -4 -8 0 -13 9 -13 13 0 12 -4 -4 -20
-11 -11 -20 -24 -20 -30 0 -19 -3 -25 -21 -49 -10 -13 -16 -27 -13 -32 3 -5 0
-9 -5 -9 -6 0 -10 -3 -8 -8 4 -13 -42 -52 -62 -52 -22 0 -41 -45 -36 -82 14
-89 23 -135 30 -150 6 -16 1 -18 -49 -18 -43 0 -56 -3 -56 -15 0 -12 15 -15
74 -15 97 0 105 3 99 44 -3 25 10 61 62 164 36 72 64 134 63 136 -2 3 5 11 15
18 10 7 23 24 30 37 7 13 16 23 21 22 5 -2 12 3 17 11 11 17 29 -1 32 -30 0
-11 4 -19 8 -16 4 2 10 -2 12 -8 9 -23 27 14 23 46 -5 33 13 67 64 114 19 18
28 30 20 27 -8 -4 -4 2 9 13 19 15 28 17 46 8 13 -6 21 -14 19 -18 -2 -4 3
-11 11 -16 10 -5 18 -27 21 -53 2 -24 6 -53 8 -64 3 -11 5 -24 5 -28 1 -5 6
-5 11 -2 6 3 10 1 10 -4 0 -6 7 -11 15 -11 16 0 20 12 9 23 -22 22 2 147 25
132 6 -3 8 3 6 14 -3 15 0 18 12 14 11 -4 14 -2 9 5 -3 6 3 16 14 22 11 6 20
7 20 3 0 -4 6 1 13 11 7 9 22 18 34 19 12 0 19 5 17 9 -3 4 1 8 10 8 8 0 16 5
18 10 2 6 15 12 29 14 13 1 30 6 37 10 7 4 17 4 24 0 6 -4 8 -3 4 4 -7 12 29
26 44 17 5 -3 18 -1 27 5 17 11 17 11 0 6 -11 -4 -16 -2 -11 5 3 6 16 8 28 5
21 -5 21 -5 1 10 -19 14 -19 14 5 12 18 -2 25 2 25 14 0 9 3 19 7 23 11 11
-25 63 -40 58 -9 -4 -7 -9 8 -20 11 -8 18 -19 14 -24 -7 -12 -44 28 -44 48 0
7 6 13 13 13 8 1 6 5 -4 13 -9 7 -17 15 -17 20 -1 4 -4 7 -7 7 -3 0 -9 0 -15
0 -5 0 -17 -14 -25 -30 -20 -39 -38 -28 -33 20 2 21 0 36 -4 34 -5 -3 -8 -13
-8 -23 0 -14 -11 -20 -47 -25 -33 -4 -49 -2 -55 6 -7 12 -12 3 -9 -16 1 -5 -6
-18 -16 -29 -10 -11 -12 -17 -5 -13 6 4 12 3 12 -2 0 -15 -54 -22 -62 -9 -5 8
-8 8 -8 -2 0 -11 -4 -10 -14 4 -12 17 -13 16 -20 -10 -8 -33 -2 -42 19 -25 9
7 18 10 21 7 9 -9 -36 -29 -53 -23 -8 4 -13 13 -10 21 4 9 1 12 -7 9 -8 -3
-12 -15 -10 -27 2 -12 2 -16 -2 -9 -9 18 -27 15 -20 -4 5 -13 4 -14 -7 -6 -8
7 -17 9 -20 5 -4 -3 -8 -2 -8 3 -6 39 -5 53 2 48 5 -3 9 -13 9 -22 0 -14 2
-15 10 -2 5 9 5 17 -1 21 -5 3 -7 13 -3 22 4 13 1 17 -15 17 -12 0 -20 -3 -20
-7 4 -22 -3 -32 -16 -27 -11 5 -12 11 -4 25 6 12 6 19 0 19 -12 0 -24 -37 -16
-50 3 -5 13 -10 21 -10 8 0 14 -7 14 -15 0 -9 -6 -12 -15 -9 -21 8 -19 -13 3
-25 9 -6 12 -11 7 -11 -6 0 -16 5 -23 12 -9 9 -12 9 -12 0 0 -7 -8 -12 -17
-11 -11 0 -13 3 -5 6 6 2 12 9 12 14 0 4 -8 5 -17 2 -13 -5 -15 -2 -10 13 6
15 3 15 -13 -5 -25 -30 -25 -21 0 24 11 19 18 35 16 35 -3 0 -12 3 -22 7 -10
4 -15 2 -11 -4 3 -5 0 -31 -8 -57 -11 -34 -11 -45 -2 -39 7 4 6 0 -2 -10 -8
-10 -16 -15 -19 -12 -7 7 -32 -15 -32 -28 0 -6 7 -2 15 9 14 18 15 18 6 -6 -4
-14 -13 -25 -19 -25 -6 0 -14 -4 -19 -9 -5 -5 -3 -6 5 -2 6 4 12 3 12 -2 0 -5
-11 -14 -25 -20 -14 -6 -25 -18 -25 -25 0 -7 -7 -22 -16 -33 -8 -10 -12 -12
-8 -4 3 8 -6 1 -22 -15 -29 -30 -46 -37 -60 -22 -4 4 -2 7 4 7 9 0 25 31 27
52 0 3 4 10 9 15 5 5 6 3 2 -4 -4 -7 -5 -13 -2 -13 3 0 10 10 17 21 9 17 8 20
-3 14 -7 -4 -2 3 12 15 14 12 18 18 10 14 -8 -4 -3 4 13 19 15 14 27 30 27 34
0 4 -8 -1 -17 -12 l-16 -20 8 20 c4 11 8 26 8 32 0 8 4 9 12 3 7 -6 11 -3 11
10 0 11 -2 17 -5 15 -7 -8 -31 16 -31 31 0 8 7 14 15 14 8 0 15 5 15 11 0 6
-9 8 -22 4 -17 -5 -19 -4 -9 4 13 8 13 12 0 27 -9 11 -9 15 -1 10 8 -5 12 0
12 13 0 12 -4 21 -10 21 -5 0 -10 -4 -10 -10 0 -5 -5 -10 -11 -10 -6 0 -8 9
-3 22 6 19 5 21 -8 11 -8 -7 -18 -10 -21 -6 -4 3 -15 0 -24 -8 -14 -11 -14 -8
2 10 11 14 15 21 8 18 -6 -4 -18 2 -26 13 -13 19 -15 18 -21 -26 -3 -25 -3
-51 1 -57 3 -5 1 -7 -4 -4 -14 9 -24 -18 -16 -40 5 -11 3 -14 -6 -8 -10 5 -11
2 -6 -14 3 -11 2 -21 -3 -21 -6 0 -8 -8 -5 -19 2 -10 -3 -25 -12 -34 -9 -10
-18 -29 -20 -44 -2 -16 -5 -30 -6 -33 -1 -3 -3 -11 -3 -19 -1 -8 -9 -15 -19
-17 -10 -1 -24 -9 -30 -16 -23 -27 -61 -54 -53 -38 4 8 0 6 -8 -4 -9 -11 -16
-24 -16 -29 0 -4 -5 -5 -12 -1 -6 4 -8 3 -5 -3 3 -5 -5 -22 -18 -37 -14 -16
-22 -32 -20 -36 3 -5 2 -10 -2 -12 -5 -1 -21 -28 -36 -60 -20 -39 -37 -60 -58
-68 -16 -7 -32 -10 -35 -7 -9 8 386 810 408 829 11 10 17 22 13 28 -3 5 -7 28
-7 50 0 22 -5 40 -10 40 -6 0 -8 -11 -6 -24z m8 -79 c0 -2 -10 -12 -21 -23
-22 -19 -22 -19 -8 4 12 19 29 30 29 19z m770 -254 c0 -13 -3 -13 -15 -3 -8 7
-15 16 -15 21 0 5 7 6 15 3 8 -4 15 -13 15 -21z m-138 0 c-6 -2 -9 -10 -6 -15
4 -7 2 -8 -5 -4 -13 9 -5 26 12 25 9 0 8 -2 -1 -6z m-557 -33 c3 -5 1 -10 -4
-10 -6 0 -11 5 -11 10 0 6 2 10 4 10 3 0 8 -4 11 -10z m-35 -4 c0 -3 -4 -8
-10 -11 -5 -3 -10 -1 -10 4 0 6 5 11 10 11 6 0 10 -2 10 -4z m550 -17 c0 -6
-4 -7 -10 -4 -5 3 -10 11 -10 16 0 6 5 7 10 4 6 -3 10 -11 10 -16z m-51 -30
c-15 -9 -32 -2 -24 11 3 5 13 6 21 3 12 -4 13 -8 3 -14z m96 2 c3 -5 1 -12 -5
-16 -5 -3 -10 1 -10 9 0 18 6 21 15 7z m-605 -444 c0 -2 -15 -16 -32 -33 l-33
-29 29 33 c28 30 36 37 36 29z m-277 -42 c-3 -9 -8 -14 -10 -11 -3 3 -2 9 2
15 9 16 15 13 8 -4z m-23 -35 c0 -19 -63 -135 -67 -124 -2 6 6 33 18 60 20 45
24 53 28 69 2 10 21 5 21 -5z m210 -58 c0 -5 -9 -19 -20 -32 -23 -26 -25 -22
-8 15 11 24 28 34 28 17z"/>
<path d="M5977 2963 c-4 -3 -7 -11 -7 -17 0 -6 5 -5 12 2 6 6 9 14 7 17 -3 3
-9 2 -12 -2z"/>
<path d="M5585 2900 c3 -5 16 -10 28 -9 21 0 21 1 2 9 -28 12 -37 12 -30 0z"/>
<path d="M5560 2850 c-6 -11 -8 -20 -6 -20 3 0 10 9 16 20 6 11 8 20 6 20 -3
0 -10 -9 -16 -20z"/>
<path d="M5565 2410 c-16 -7 -17 -9 -3 -9 9 -1 20 4 23 9 7 11 7 11 -20 0z"/>
</g>
</svg>
